<svg width="96" height="96" xmlns="http://www.w3.org/2000/svg" xmlns:xlink="http://www.w3.org/1999/xlink" overflow="hidden"><defs><clipPath id="clip0"><rect x="192" y="401" width="96" height="96"/></clipPath></defs><g clip-path="url(#clip0)" transform="translate(-192 -401)"><path d="M239 436C239 437.105 238.105 438 237 438 235.895 438 235 437.105 235 436 235 434.895 235.895 434 237 434 238.105 434 239 434.895 239 436Z" fill="#FFFFFF"/><path d="M245 436C245 437.105 244.105 438 243 438 241.895 438 241 437.105 241 436 241 434.895 241.895 434 243 434 244.105 434 245 434.895 245 436Z" fill="#FFFFFF"/><path d="M242 459C242 460.105 241.105 461 240 461 238.895 461 238 460.105 238 459 238 457.895 238.895 457 240 457 241.105 457 242 457.895 242 459Z" fill="#FFFFFF"/><path d="M242 467C242 468.105 241.105 469 240 469 238.895 469 238 468.105 238 467 238 465.895 238.895 465 240 465 241.105 465 242 465.895 242 467Z" fill="#FFFFFF"/><path d="M242 474C242 475.105 241.105 476 240 476 238.895 476 238 475.105 238 474 238 472.895 238.895 472 240 472 241.105 472 242 472.895 242 474Z" fill="#FFFFFF"/><path d="M240 483C230.6 483 223 475.4 223 466 223 459.4 226.8 453.7 232.3 450.9 234.6 452.3 237.2 453 240 453 242.8 453 245.4 452.2 247.7 450.9 253.2 453.7 257 459.4 257 466 257 475.4 249.4 483 240 483ZM245.6 431C247.6 432.7 249 435.2 249 438 249 443 245 447 240 447 235 447 231 443 231 438 231 435.2 232.3 432.7 234.4 431L245.6 431ZM273.3 438.5C272.5 437.8 271.2 437.9 270.5 438.7L264.7 445.5 257.2 450.7C255.8 449.1 254.1 447.7 252.3 446.5 254 444.1 255 441.2 255 438 255 435.5 254.4 433.1 253.3 431L254 431C255.7 431 257 429.7 257 428 257 426.3 255.7 425 254 425L250 425 250 411C250 409.9 249.1 409 248 409L232 409C230.9 409 230 409.9 230 411L230 425 226 425C224.3 425 223 426.3 223 428 223 429.7 224.3 431 226 431L226.7 431C225.6 433.1 225 435.5 225 438 225 441.2 226 444.1 227.7 446.6 225.9 447.8 224.2 449.2 222.8 450.8L215.3 445.6 209.5 438.8C208.8 438 207.5 437.9 206.7 438.6 205.9 439.3 205.8 440.6 206.5 441.4L211 446.6 208 448.4C207.1 449 206.7 450.2 207.3 451.1 207.7 451.7 208.3 452.1 209 452.1 209.4 452.1 209.7 452 210 451.8L213.9 449.5 220.4 454.1C218.3 457.5 217 461.6 217 466 217 478.7 227.3 489 240 489 252.7 489 263 478.7 263 466 263 461.6 261.7 457.5 259.6 453.9L266.1 449.3 270 451.6C270.3 451.8 270.7 451.9 271 451.9 271.7 451.9 272.3 451.6 272.7 450.9 273.3 450 273 448.7 272 448.2L269 446.4 273.5 441.2C274.2 440.5 274.1 439.2 273.3 438.5Z" fill="#FFFFFF"/><path d="M238 441C238 442.1 238.9 443 240 443 240.4 443 240.7 442.9 241 442.7L244 441 241 439.3C240.7 439.1 240.4 439 240 439 238.9 439 238 439.9 238 441Z" fill="#FFFFFF"/></g></svg>