<svg width="96" height="96" xmlns="http://www.w3.org/2000/svg" xmlns:xlink="http://www.w3.org/1999/xlink" overflow="hidden"><defs><clipPath id="clip0"><rect x="192" y="270" width="96" height="96"/></clipPath></defs><g clip-path="url(#clip0)" transform="translate(-192 -270)"><path d="M268.7 332.3 264.2 329.7 267.7 328.8C268.8 328.5 269.4 327.4 269.1 326.4 268.8 325.4 267.7 324.7 266.7 325L259.3 327 256.4 325.3 265.4 322.9C266.5 322.6 267.1 321.5 266.8 320.5 266.5 319.5 265.4 318.8 264.4 319.1L251.5 322.5 247.7 320.3C247.9 319.6 248 318.9 248 318.2 248 317.5 247.9 316.7 247.7 316.1L251.5 313.9 264.4 317.3C264.6 317.3 264.7 317.4 264.9 317.4 265.8 317.4 266.6 316.8 266.8 315.9 267.1 314.8 266.5 313.7 265.4 313.5L256.4 311.1 259.3 309.4 266.7 311.4C266.9 311.4 267 311.5 267.2 311.5 268.1 311.5 268.9 310.9 269.1 310 269.4 308.9 268.8 307.8 267.7 307.6L264.2 306.7 268.7 304.1C269.7 303.5 270 302.3 269.4 301.4 268.8 300.4 267.6 300.1 266.7 300.7L262.2 303.3 263.1 299.8C263.4 298.7 262.8 297.6 261.7 297.4 260.6 297.1 259.5 297.7 259.3 298.8L257.3 306.2 254.4 307.9 256.8 298.9C257.1 297.8 256.5 296.7 255.4 296.5 254.3 296.2 253.2 296.8 253 297.9L249.6 310.8 245.8 313C244.8 312 243.5 311.2 242.1 310.9L242.1 306.5 251.5 297.1C252.3 296.3 252.3 295.1 251.5 294.3 250.7 293.5 249.5 293.5 248.7 294.3L242 300.2 242 296.9 247.4 291.5C248.2 290.7 248.2 289.5 247.4 288.7 246.6 287.9 245.4 287.9 244.6 288.7L242 291.2 242 286C242 284.9 241.1 284 240 284 238.9 284 238 284.9 238 286L238 291.2 235.4 288.6C234.6 287.8 233.4 287.8 232.6 288.6 231.8 289.4 231.8 290.6 232.6 291.4L238 296.8 238 300.1 231.4 293.5C230.6 292.7 229.4 292.7 228.6 293.5 227.8 294.3 227.8 295.5 228.6 296.3L238 305.7 238 310.1C236.6 310.5 235.3 311.2 234.3 312.2L230.5 310 227 297.3C226.7 296.2 225.6 295.6 224.6 295.9 223.5 296.2 222.9 297.3 223.2 298.3L225.6 307.3 222.7 305.6 220.7 298.2C220.4 297.1 219.3 296.5 218.3 296.8 217.2 297.1 216.6 298.2 216.9 299.2L217.8 302.7 213.3 300.1C212.3 299.5 211.1 299.9 210.6 300.8 210 301.8 210.4 303 211.3 303.5L215.8 306.1 212.3 307C211.2 307.3 210.6 308.4 210.9 309.4 211.1 310.3 211.9 310.9 212.8 310.9 213 310.9 213.1 310.9 213.3 310.8L220.7 308.8 223.6 310.5 214.6 312.9C213.5 313.2 212.9 314.3 213.2 315.3 213.4 316.2 214.2 316.8 215.1 316.8 215.3 316.8 215.4 316.8 215.6 316.7L228.5 313.3 232.3 315.5C232.1 316.5 232 317.3 232 318 232 318.7 232.1 319.5 232.3 320.1L228.5 322.3 215.6 318.9C214.5 318.6 213.4 319.2 213.2 320.3 213 321.4 213.5 322.5 214.6 322.7L223.6 325.1 220.7 326.8 213.3 324.8C212.2 324.5 211.1 325.1 210.9 326.2 210.7 327.3 211.2 328.4 212.3 328.6L215.8 329.5 211.3 332.1C210.3 332.7 210 333.9 210.6 334.8 211 335.4 211.6 335.8 212.3 335.8 212.6 335.8 213 335.7 213.3 335.5L217.8 332.9 216.9 336.4C216.6 337.5 217.2 338.6 218.3 338.8 218.5 338.8 218.6 338.9 218.8 338.9 219.7 338.9 220.5 338.3 220.7 337.4L222.7 330 225.6 328.3 223.2 337.3C222.9 338.4 223.5 339.5 224.6 339.7 224.8 339.7 224.9 339.8 225.1 339.8 226 339.8 226.8 339.2 227 338.3L230.4 325.4 234.2 323.2C235.2 324.2 236.5 325 237.9 325.3L237.9 329.7 228.5 339.1C227.7 339.9 227.7 341.1 228.5 341.9 229.3 342.7 230.5 342.7 231.3 341.9L237.9 335.3 237.9 338.6 232.5 344C231.7 344.8 231.7 346 232.5 346.8 233.3 347.6 234.5 347.6 235.3 346.8L237.9 344.2 237.9 350C237.9 351.1 238.8 352 239.9 352 241 352 241.9 351.1 241.9 350L241.9 344.8 244.5 347.4C245 347.8 245.5 348 246 348 246.5 348 247 347.8 247.4 347.4 248.2 346.6 248.2 345.4 247.4 344.6L242 339.2 242 335.9 248.6 342.5C249 342.8 249.5 343 250 343 250.5 343 251 342.8 251.4 342.4 252.2 341.6 252.2 340.4 251.4 339.6L242 330.2 242 325.8C243.4 325.4 244.7 324.7 245.7 323.7L249.5 325.9 253 338.7C253.2 339.6 254 340.2 254.9 340.2 255.1 340.2 255.2 340.2 255.4 340.1 256.5 339.8 257.1 338.7 256.8 337.7L254.4 328.7 257.3 330.4 259.3 337.8C259.5 338.7 260.3 339.3 261.2 339.3 261.4 339.3 261.5 339.3 261.7 339.2 262.8 338.9 263.4 337.8 263.1 336.8L262.2 333.3 266.7 335.9C267 336.1 267.4 336.2 267.7 336.2 268.4 336.2 269.1 335.8 269.4 335.2 270 334 269.7 332.8 268.7 332.3Z" fill="#FFFFFF"/></g></svg>